<?xml version="1.0" encoding="UTF-8"?>
<svg version="1.1" xmlns="http://www.w3.org/2000/svg" width="100" height="100">
<path d="M0 0 C2.86722594 1.3385458 5.59791917 2.74530555 8.32421875 4.3515625 C9.82166626 5.22905151 9.82166626 5.22905151 11.34936523 6.12426758 C12.39165283 6.74325928 13.43394043 7.36225098 14.5078125 8 C15.57523682 8.62865967 16.64266113 9.25731934 17.74243164 9.9050293 C39.06558453 22.49527203 39.06558453 22.49527203 40.9453125 24.375 C41.08511595 25.84569693 41.15744302 27.32289562 41.20166016 28.79956055 C41.23063385 29.74111496 41.25960754 30.68266937 41.28945923 31.65275574 C41.3867242 35.97786302 41.46102845 40.30279917 41.51513672 44.62866211 C41.55178254 46.90929684 41.60633822 49.18971731 41.67919922 51.46948242 C41.78267433 54.75517492 41.82707357 58.03714758 41.859375 61.32421875 C41.90268951 62.34005539 41.94600403 63.35589203 41.9906311 64.4025116 C41.97220966 71.32391315 41.97220966 71.32391315 39.10177612 74.26196289 C36.78276239 75.83306227 34.45036688 77.12541449 31.9453125 78.375 C30.85718262 79.03322754 29.76905273 79.69145508 28.64794922 80.36962891 C27.65037598 80.94116699 26.65280273 81.51270508 25.625 82.1015625 C23.95630859 83.060625 23.95630859 83.060625 22.25390625 84.0390625 C21.12082031 84.68617187 19.98773438 85.33328125 18.8203125 86 C17.10908203 86.98226562 17.10908203 86.98226562 15.36328125 87.984375 C13.17674351 89.2389042 10.98649418 90.4869941 8.79199219 91.72753906 C7.09999675 92.70674877 5.42519006 93.71852163 3.79394531 94.79589844 C2.015625 95.9609375 2.015625 95.9609375 -1.0546875 97.375 C-5.23444489 96.31299787 -8.7330937 94.57866522 -12.43359375 92.3984375 C-13.43841797 91.80933594 -14.44324219 91.22023438 -15.47851562 90.61328125 C-17.0321582 89.69095703 -17.0321582 89.69095703 -18.6171875 88.75 C-19.62587891 88.15832031 -20.63457031 87.56664063 -21.67382812 86.95703125 C-23.7440904 85.73830088 -25.79780767 84.49107473 -27.83496094 83.21777344 C-31.03569141 81.2732277 -31.03569141 81.2732277 -34.67285156 80.00878906 C-38.52737477 78.34868835 -41.70282275 76.90518013 -44.0546875 73.375 C-46.21738156 66.43199992 -45.92210042 59.04425416 -45.74951172 51.84863281 C-45.6797592 48.37856718 -45.7488171 44.93032762 -45.83203125 41.4609375 C-45.90462327 25.62381407 -45.90462327 25.62381407 -41.5534668 20.33447266 C-38.73769379 18.58856012 -36.03428654 17.27628228 -32.92858887 16.13342285 C-29.68298277 14.81983086 -26.82514619 12.88381288 -23.87109375 11.0234375 C-22.66740578 10.3066574 -21.46101187 9.59440186 -20.25195312 8.88671875 C-18.41267226 7.80928047 -16.5784501 6.7264923 -14.75610352 5.62060547 C-12.95114675 4.52685058 -11.1323798 3.46041842 -9.30859375 2.3984375 C-8.24970947 1.76856934 -7.1908252 1.13870117 -6.09985352 0.48974609 C-3.0546875 -0.625 -3.0546875 -0.625 0 0 Z M-9.1640625 8.734375 C-9.76849182 9.08002502 -10.37292114 9.42567505 -10.9956665 9.78179932 C-12.27790173 10.51623385 -13.55893772 11.25276541 -14.83886719 11.99121094 C-16.78043931 13.11101483 -18.72577658 14.22402246 -20.671875 15.3359375 C-26.24531185 18.53332362 -31.73959723 21.76266627 -37.0546875 25.375 C-33.39466553 28.42501831 -27.97617279 32.375 -23.0546875 32.375 C-23.3846875 34.025 -23.7146875 35.675 -24.0546875 37.375 C-29.3346875 35.065 -34.6146875 32.755 -40.0546875 30.375 C-40.26188937 35.82364168 -40.44071892 41.25855681 -40.54907227 46.70800781 C-40.59423185 48.55906536 -40.65557889 50.4098036 -40.73364258 52.25976562 C-41.59415499 62.44430082 -41.59415499 62.44430082 -38.42651367 71.71875 C-36.0426928 73.34177697 -33.74028983 74.32924893 -31.0546875 75.375 C-29.11823392 76.4716727 -27.19544817 77.59274098 -25.28515625 78.734375 C-23.27285395 79.86817708 -21.25850274 80.99834986 -19.2421875 82.125 C-18.21931641 82.70121094 -17.19644531 83.27742188 -16.14257812 83.87109375 C-12.14327023 86.11824907 -8.15879875 88.32294437 -4.0546875 90.375 C-4.0546875 83.775 -4.0546875 77.175 -4.0546875 70.375 C-2.7346875 70.375 -1.4146875 70.375 -0.0546875 70.375 C-0.0546875 76.975 -0.0546875 83.575 -0.0546875 90.375 C7.6652792 86.18143784 15.35264612 81.93567621 23.0078125 77.625 C24.03841797 77.04878906 25.06902344 76.47257812 26.13085938 75.87890625 C27.11248047 75.32589844 28.09410156 74.77289063 29.10546875 74.203125 C29.98855713 73.7071582 30.87164551 73.21119141 31.78149414 72.70019531 C34.04828459 71.42783116 34.04828459 71.42783116 35.9453125 69.375 C36.12070686 66.43403263 36.17663625 63.58846651 36.140625 60.6484375 C36.13638016 59.35421371 36.13638016 59.35421371 36.13204956 58.03384399 C36.12083583 55.2724228 36.09572934 52.5113235 36.0703125 49.75 C36.06028423 47.88021301 36.05115812 46.01042095 36.04296875 44.140625 C36.02259235 39.55185893 35.98344649 34.96379065 35.9453125 30.375 C30.6653125 32.685 25.3853125 34.995 19.9453125 37.375 C19.6153125 35.725 19.2853125 34.075 18.9453125 32.375 C19.7703125 32.1275 20.5953125 31.88 21.4453125 31.625 C25.46904721 30.18795189 29.16510274 28.35145485 32.9453125 26.375 C29.39698819 22.26989076 25.15689761 20.08140091 20.4453125 17.5625 C18.83009335 16.68476278 17.21551172 15.80585139 15.6015625 14.92578125 C14.81136719 14.49604004 14.02117187 14.06629883 13.20703125 13.62353516 C9.12211461 11.36854124 5.1287454 8.96334705 1.1328125 6.5546875 C-3.1006239 4.27165573 -5.2304207 6.47836547 -9.1640625 8.734375 Z " fill="#FFFFFF" transform="translate(52.0546875,1.625)"/>
<path d="M0 0 C4.8404001 2.60960701 8.06650639 6.09014417 9.796875 11.28125 C10.46163179 18.73524418 10.44121145 24.25616487 5.796875 30.28125 C0.39692227 35.28608423 -4.05234248 35.63143872 -11.1875 35.5625 C-16.73027207 35.04555753 -19.78938645 32.80659949 -23.578125 28.71875 C-27.13749657 23.37969265 -26.78151279 17.4828524 -26.203125 11.28125 C-24.60392 6.37933903 -21.45575292 3.11633528 -17.203125 0.28125 C-11.84906913 -1.50343529 -5.40672306 -1.76389547 0 0 Z " fill="#FFFFFF" transform="translate(58.203125,30.71875)"/>
</svg>
